<svg width="34" height="34" viewBox="0 0 34 34" fill="none" xmlns="http://www.w3.org/2000/svg">
<path d="M25.5641 5.76609C25.1686 5.76609 24.7819 5.88338 24.4531 6.10312C24.1242 6.32286 23.8679 6.63518 23.7165 7.0006C23.5652 7.36602 23.5256 7.76811 23.6027 8.15603C23.6799 8.54395 23.8704 8.90029 24.15 9.17996C24.4297 9.45964 24.786 9.6501 25.174 9.72726C25.5619 9.80443 25.964 9.76482 26.3294 9.61346C26.6948 9.4621 27.0071 9.20579 27.2269 8.87692C27.4466 8.54805 27.5639 8.16141 27.5639 7.76589C27.5639 7.23551 27.3532 6.72685 26.9782 6.35182C26.6031 5.97678 26.0945 5.76609 25.5641 5.76609ZM33.23 9.79902C33.1976 8.41632 32.9386 7.0483 32.4634 5.74942C32.0397 4.63809 31.3802 3.63177 30.5303 2.79972C29.7051 1.94552 28.6964 1.29017 27.5806 0.883245C26.2851 0.393562 24.9156 0.12867 23.531 0.0999899C21.7645 -9.31229e-08 21.1979 0 16.665 0C12.1321 0 11.5655 -9.31229e-08 9.79902 0.0999899C8.41441 0.12867 7.04487 0.393562 5.74942 0.883245C4.63566 1.29428 3.62786 1.94907 2.79972 2.79972C1.94552 3.62493 1.29017 4.6336 0.883245 5.74942C0.393562 7.04487 0.12867 8.41441 0.0999899 9.79902C-9.31229e-08 11.5655 0 12.1321 0 16.665C0 21.1979 -9.31229e-08 21.7645 0.0999899 23.531C0.12867 24.9156 0.393562 26.2851 0.883245 27.5806C1.29017 28.6964 1.94552 29.7051 2.79972 30.5303C3.62786 31.3809 4.63566 32.0357 5.74942 32.4468C7.04487 32.9364 8.41441 33.2013 9.79902 33.23C11.5655 33.33 12.1321 33.33 16.665 33.33C21.1979 33.33 21.7645 33.33 23.531 33.23C24.9156 33.2013 26.2851 32.9364 27.5806 32.4468C28.6964 32.0398 29.7051 31.3845 30.5303 30.5303C31.3839 29.7013 32.044 28.6941 32.4634 27.5806C32.9386 26.2817 33.1976 24.9137 33.23 23.531C33.23 21.7645 33.33 21.1979 33.33 16.665C33.33 12.1321 33.33 11.5655 33.23 9.79902ZM30.2303 23.331C30.2182 24.3888 30.0266 25.437 29.6637 26.4307C29.3976 27.1559 28.9702 27.8113 28.4138 28.3472C27.8733 28.898 27.2193 29.3245 26.4974 29.597C25.5036 29.9599 24.4555 30.1515 23.3977 30.1637C21.7312 30.247 21.1146 30.2636 16.7317 30.2636C12.3488 30.2636 11.7322 30.2636 10.0657 30.1637C8.96725 30.1842 7.87354 30.0151 6.83265 29.6637C6.14236 29.3772 5.51837 28.9517 4.9995 28.4138C4.44637 27.8785 4.02434 27.2226 3.76629 26.4974C3.35942 25.4894 3.13376 24.4175 3.09969 23.331C3.09969 21.6645 2.9997 21.0479 2.9997 16.665C2.9997 12.2821 2.9997 11.6655 3.09969 9.999C3.10716 8.91753 3.30459 7.84579 3.68297 6.83265C3.97635 6.12924 4.42667 5.50221 4.9995 4.9995C5.50581 4.4265 6.13153 3.97143 6.83265 3.6663C7.84847 3.29974 8.9191 3.10816 9.999 3.09969C11.6655 3.09969 12.2821 2.9997 16.665 2.9997C21.0479 2.9997 21.6645 2.9997 23.331 3.09969C24.3888 3.11182 25.437 3.30341 26.4307 3.6663C27.188 3.94736 27.8677 4.4043 28.4138 4.9995C28.9599 5.51141 29.3867 6.13727 29.6637 6.83265C30.0341 7.84744 30.2258 8.91874 30.2303 9.999C30.3136 11.6655 30.3303 12.2821 30.3303 16.665C30.3303 21.0479 30.3136 21.6645 30.2303 23.331ZM16.665 8.11586C14.9749 8.11915 13.3236 8.62335 11.9199 9.56474C10.5162 10.5061 9.42302 11.8425 8.77851 13.4049C8.134 14.9674 7.96708 16.6858 8.29883 18.343C8.63058 20.0003 9.44612 21.5221 10.6424 22.716C11.8387 23.91 13.362 24.7226 15.0199 25.0511C16.6778 25.3796 18.3959 25.2093 19.9571 24.5618C21.5183 23.9142 22.8525 22.8185 23.7912 21.4129C24.7298 20.0074 25.2308 18.3552 25.2308 16.665C25.233 15.5403 25.0128 14.4262 24.5829 13.3869C24.153 12.3476 23.5219 11.4035 22.7258 10.609C21.9298 9.81451 20.9845 9.18521 19.9443 8.75734C18.9042 8.32947 17.7897 8.11146 16.665 8.11586ZM16.665 22.2144C15.5674 22.2144 14.4945 21.889 13.5819 21.2792C12.6693 20.6694 11.958 19.8027 11.538 18.7887C11.118 17.7747 11.0081 16.6588 11.2222 15.5824C11.4363 14.5059 11.9648 13.5171 12.741 12.741C13.5171 11.9648 14.5059 11.4363 15.5824 11.2222C16.6588 11.0081 17.7747 11.118 18.7887 11.538C19.8027 11.958 20.6694 12.6693 21.2792 13.5819C21.889 14.4945 22.2144 15.5674 22.2144 16.665C22.2144 17.3938 22.0709 18.1154 21.792 18.7887C21.5131 19.462 21.1044 20.0737 20.5891 20.5891C20.0737 21.1044 19.462 21.5131 18.7887 21.792C18.1154 22.0709 17.3938 22.2144 16.665 22.2144Z" fill="#FD5956"/>
</svg>
